name analog
datacolumns 19
datarows 33
range 0.511 0.527
endheader
time	ground_force_vx	ground_force_vy	ground_force_vz	ground_force_px	ground_force_py	ground_force_pz	l_ground_force_vx	l_ground_force_vy	l_ground_force_vz	l_ground_force_px	l_ground_force_py	l_ground_force_pz	ground_torque_x	ground_torque_y	ground_torque_z	l_ground_torque_x	l_ground_torque_y	l_ground_torque_z
0.511	-0.0	-0.0	-0.0	-0.0	-0.0	-0.0	16.968841552734375	-46.28056335449219	-737.9623413085938	-0.0	-0.0	-0.0	-0.0	-0.0	-0.0	253316.234375	-8380.3505859375	4502.154296875
0.5115000000000001	-0.0	-0.0	-0.0	-0.0	-0.0	-0.0	18.02359771728516	-46.7891960144043	-737.4321899414062	-0.0	-0.0	-0.0	-0.0	-0.0	-0.0	252913.734375	-8643.1796875	5078.603515625
0.512	-0.0	-0.0	-0.0	23.333908081054688	1.388789415359497	-22.54591560363769	19.99025535583496	-47.30381393432617	-734.7000732421875	-0.0	-0.0	-0.0	-0.0	-0.0	-0.0	252198.375	-8835.6943359375	5401.05712890625
0.5125	-0.0	-0.0	-0.0	23.08259391784668	1.6043472290039062	-27.51447868347168	21.253767013549805	-48.02534103393555	-732.8099365234375	-0.0	-0.0	-0.0	-0.0	-0.0	-0.0	251456.0625	-9003.158203125	6017.44287109375
0.513	-0.0	-0.0	-0.0	17.968753814697266	2.3635711669921875	-34.1102294921875	22.37006378173828	-49.04829788208008	-731.2686767578125	-0.0	-0.0	-0.0	-0.0	-0.0	-0.0	250614.84375	-9024.1025390625	6487.54248046875
0.5135	-0.0	-0.0	-0.0	8.413226127624512	3.199556589126587	-43.10789489746094	23.153514862060547	-49.89443206787109	-728.2431030273438	-0.0	-0.0	-0.0	-0.0	-0.0	-0.0	249537.34375	-8855.451171875	6653.48779296875
0.514	-0.0	-0.0	-0.0	-0.9390596151351928	4.798968315124512	-57.94010162353516	23.900205612182617	-50.7112922668457	-725.1580200195312	-0.0	-0.0	-0.0	-0.0	-0.0	-0.0	248524.140625	-8664.7265625	6888.71484375
0.5145	-0.0	-0.0	-0.0	-9.512075424194336	6.033011436462402	-75.06175994873047	24.06974029541016	-51.44013595581055	-721.6390991210938	-0.0	-0.0	-0.0	-0.0	-0.0	-0.0	247154.078125	-8583.40234375	7073.83056640625
0.515	-0.0	-0.0	-0.0	-14.34904956817627	6.609479904174805	-88.49897003173828	24.661598205566406	-51.93315124511719	-718.5863037109375	-0.0	-0.0	-0.0	-0.0	-0.0	-0.0	245659.578125	-8275.4189453125	7259.6240234375
0.5155	-0.0	-0.0	-0.0	-15.58439826965332	6.084870338439941	-100.50685119628906	25.04512023925781	-52.55140686035156	-713.0910034179688	-0.0	-0.0	-0.0	-0.0	-0.0	-0.0	243683.421875	-8002.4404296875	7264.5146484375
0.516	-0.0	-0.0	-0.0	-13.4058198928833	5.501863479614258	-113.37075805664062	25.119346618652344	-53.10429763793945	-706.1312255859375	-0.0	-0.0	-0.0	-0.0	-0.0	-0.0	241579.6875	-7365.7392578125	7317.15380859375
0.5165	-0.0	-0.0	-0.0	-9.137338638305664	7.106063365936279	-125.07904815673828	25.32899284362793	-53.63437271118164	-698.9656982421875	-0.0	-0.0	-0.0	-0.0	-0.0	-0.0	238528.96875	-6866.0927734375	7375.21484375
0.517	-0.0	-0.0	-0.0	-4.574309349060059	9.741898536682127	-132.3896026611328	25.31052589416504	-54.39224624633789	-689.960693359375	-0.0	-0.0	-0.0	-0.0	-0.0	-0.0	235326.421875	-6394.779296875	7407.7001953125
0.5175	-0.0	-0.0	-0.0	-2.165844202041626	12.148128509521484	-140.66375732421875	25.38106155395508	-54.59657669067383	-677.6873168945312	-0.0	-0.0	-0.0	-0.0	-0.0	-0.0	231521.15625	-5928.61865234375	7467.001953125
0.518	-0.0	-0.0	-0.0	-3.3912835121154785	13.712982177734377	-154.54217529296875	25.30632781982422	-54.939788818359375	-667.2828369140625	-0.0	-0.0	-0.0	-0.0	-0.0	-0.0	227533.84375	-5203.73828125	7432.58837890625
0.5185	-0.0	-0.0	-0.0	-6.998090744018555	15.279386520385742	-165.6896514892578	25.28577995300293	-54.73558044433594	-655.15625	-0.0	-0.0	-0.0	-0.0	-0.0	-0.0	223098.921875	-4950.68212890625	7483.96240234375
0.519	-0.0	-0.0	-0.0	-11.508587837219238	16.502412796020508	-177.7513885498047	25.23147201538086	-54.34185028076172	-641.6344604492188	-0.0	-0.0	-0.0	-0.0	-0.0	-0.0	218512.8125	-4417.7548828125	7534.29638671875
0.5195	-0.0	-0.0	-0.0	-16.261808395385742	18.195331573486328	-190.31353759765625	25.626487731933597	-54.06375503540039	-627.119384765625	-0.0	-0.0	-0.0	-0.0	-0.0	-0.0	213774.28125	-4242.49755859375	7556.2265625
0.52	-0.0	-0.0	-0.0	-20.122764587402344	19.93952751159668	-199.54666137695312	25.510963439941406	-53.06816482543945	-611.4609985351562	-0.0	-0.0	-0.0	-0.0	-0.0	-0.0	208587.109375	-3877.479248046875	7747.625
0.5205	-0.0	-0.0	-0.0	-21.295459747314453	20.55164909362793	-210.84506225585935	26.271520614624023	-52.24881362915039	-596.3509521484375	-0.0	-0.0	-0.0	-0.0	-0.0	-0.0	203419.828125	-3472.978271484375	7887.80078125
0.521	-0.0	-0.0	-0.0	-20.149194717407227	20.373754501342773	-218.4172821044922	26.410968780517575	-51.491546630859375	-581.4864501953125	-0.0	-0.0	-0.0	-0.0	-0.0	-0.0	198095.046875	-3044.89794921875	8014.99560546875
0.5215	-0.0	-0.0	-0.0	-17.99605369567871	19.64714241027832	-227.3368682861328	26.892230987548828	-50.557762145996094	-567.1182861328125	-0.0	-0.0	-0.0	-0.0	-0.0	-0.0	193290.0625	-2714.97265625	7951.94580078125
0.522	-0.0	-0.0	-0.0	-17.20549201965332	19.37979888916016	-235.675537109375	26.30912971496582	-49.59898376464844	-555.4989624023438	-0.0	-0.0	-0.0	-0.0	-0.0	-0.0	189428.59375	-2060.598388671875	7981.470703125
0.5225	-0.0	-0.0	-0.0	-17.94330406188965	20.37228775024414	-245.01193237304688	25.5487060546875	-48.82932662963867	-544.5274658203125	-0.0	-0.0	-0.0	-0.0	-0.0	-0.0	185455.015625	-1415.737548828125	7616.7041015625
0.523	-0.0	-0.0	-0.0	-19.96828269958496	20.446510314941406	-256.5498962402344	24.29423141479492	-48.18571472167969	-534.6517944335938	-0.0	-0.0	-0.0	-0.0	-0.0	-0.0	181791.59375	-232.45997619628903	7073.630859375
0.5235	-0.0	-0.0	-0.0	-18.912628173828125	23.17730712890625	-268.0635986328125	22.83682632446289	-47.31478500366211	-523.1830444335938	-0.0	-0.0	-0.0	-0.0	-0.0	-0.0	177736.515625	997.2186279296876	6492.3544921875
0.524	-0.0	-0.0	-0.0	-19.60306167602539	25.33626365661621	-284.40191650390625	21.84882354736328	-46.94907760620117	-512.8072509765625	-0.0	-0.0	-0.0	-0.0	-0.0	-0.0	173842.71875	2201.99169921875	6008.53271484375
0.5245	-0.0	-0.0	-0.0	-19.31257057189941	27.404848098754883	-300.2317199707031	19.90949058532715	-46.33078002929688	-499.635986328125	-0.0	-0.0	-0.0	-0.0	-0.0	-0.0	169310.265625	3380.191162109375	5405.9140625
0.525	-0.0	-0.0	-0.0	-18.734207153320312	30.053022384643555	-316.1226501464844	18.11126136779785	-45.91307830810547	-488.661376953125	-0.0	-0.0	-0.0	-0.0	-0.0	-0.0	164658.546875	4681.99658203125	4506.87060546875
0.5255	-0.0	-0.0	-0.0	-17.913990020751953	31.970123291015625	-332.7606506347656	15.754840850830078	-44.99398040771485	-472.5172729492188	-0.0	-0.0	-0.0	-0.0	-0.0	-0.0	159550.796875	6368.2275390625	3759.15576171875
0.526	-0.0	-0.0	-0.0	-16.621017456054688	33.76374053955078	-355.85089111328125	14.196795463562012	-43.822357177734375	-457.7034301757813	-0.0	-0.0	-0.0	-0.0	-0.0	-0.0	154053.53125	7839.2451171875	3130.494384765625
0.5265	-0.0	-0.0	-0.0	-15.633872032165527	35.49095153808594	-376.5770263671875	12.215209007263184	-42.44437026977539	-443.4366455078125	-0.0	-0.0	-0.0	-0.0	-0.0	-0.0	148657.625	9073.8046875	2392.90185546875
0.527	-0.0	-0.0	-0.0	-14.580458641052246	37.00002670288086	-398.9130859375	10.60671615600586	-40.8430290222168	-425.9195251464844	-0.0	-0.0	-0.0	-0.0	-0.0	-0.0	142962.640625	10133.744140625	1752.520751953125
